<?xml version="1.0" encoding="UTF-8"?>
<svg width="41px" height="32px" viewBox="0 0 41 32" version="1.1" xmlns="http://www.w3.org/2000/svg" xmlns:xlink="http://www.w3.org/1999/xlink">
    <!-- Generator: Sketch 47.1 (45422) - http://www.bohemiancoding.com/sketch -->
    <title>balance</title>
    <desc>Created with Sketch.</desc>
    <defs></defs>
    <g id="Page-1" stroke="none" stroke-width="1" fill="none" fill-rule="evenodd">
        <g id="balance" fill-rule="nonzero" fill="#424242">
            <path d="M16.4538324,22.7957548 L9.42931254,6.61427594 C9.23068659,6.15596968 8.77867706,5.85954516 8.27948191,5.85954516 L8.27908339,5.85954516 C7.77980853,5.85954516 7.32827724,6.15557115 7.12885423,6.61339918 L0.104175005,22.7530327 C-0.101544726,23.2255265 0.00302880658,23.7762114 0.367601473,24.1403855 L1.41293827,25.1857223 C3.24767771,27.0204618 5.67869352,28.031047 8.25851938,28.031047 C10.8299762,28.031047 13.2530214,27.027157 15.0844133,25.2036561 L16.1539805,24.2164245 C16.5458124,23.854801 16.6662473,23.2849071 16.4538324,22.7957548 Z M13.3654858,23.3773654 C13.3533706,23.3886836 13.3412554,23.4004003 13.3295387,23.4120373 C11.9693654,24.7726091 10.1681022,25.5223184 8.25851938,25.5223184 C6.34893654,25.5223184 4.54807191,24.7726091 3.18750011,23.4120373 L2.74641022,22.9704691 L8.27820663,10.2602417 L13.7987646,22.9775629 L13.3654858,23.3773654 Z" id="Shape"></path>
            <rect id="Rectangle-path" x="1.25488239" y="22.0000554" width="14.007274" height="2.50872861"></rect>
            <path d="M40.708914,26.5647061 L33.6843942,10.132713 C33.486645,9.6706606 33.0329617,9.37128698 32.5308174,9.37128698 C32.5304189,9.37128698 32.5300204,9.37128698 32.5295421,9.37128698 C32.0269196,9.37208404 31.5728378,9.67273294 31.3763639,10.1351839 L24.3936097,26.5675755 C24.1937085,27.037997 24.2995573,27.5831822 24.6611809,27.9448854 L25.7065177,28.9902222 C27.5412571,30.8249617 29.9717947,31.8351484 32.5517002,31.8351484 C35.1316058,31.8351484 37.5625419,30.8249617 39.3968828,28.9902222 L40.4422196,27.9448854 C40.8047199,27.5828633 40.9100905,27.0363232 40.708914,26.5647061 Z M37.6227195,27.2165371 C36.2621477,28.5771089 34.4608846,29.3264198 32.551222,29.3264198 C30.6420377,29.3264198 28.8407745,28.5771089 27.4797245,27.2165371 L27.0331349,26.7699476 L32.5340056,13.8251471 L38.0679541,26.7712229 L37.6227195,27.2165371 Z" id="Shape"></path>
            <rect id="Rectangle-path" x="25.5480632" y="25.8049539" width="14.007274" height="2.50872861"></rect>
            <path d="M20.6141373,4.98143037 C18.5159714,4.98143037 16.8091592,6.68864111 16.8091592,8.78640849 C16.8091592,10.8841759 18.5159714,12.5913866 20.6141373,12.5913866 C22.7123032,12.5913866 24.419514,10.8841759 24.419514,8.78640849 C24.419514,6.68864111 22.7127815,4.98143037 20.6141373,4.98143037 Z M20.6141373,10.0825783 C19.8995781,10.0825783 19.3179675,9.50096773 19.3179675,8.78640849 C19.3179675,8.07184925 19.8995781,7.49023868 20.6141373,7.49023868 C21.3291748,7.49023868 21.9107854,8.07145073 21.9107854,8.78640849 C21.9107854,9.50096773 21.3291748,10.0825783 20.6141373,10.0825783 Z" id="Shape"></path>
            <path d="M20.6141373,0.0475044401 C19.9213377,0.0475044401 19.3597332,0.60902924 19.3597332,1.3019086 L19.3597332,6.15214382 C19.3597332,6.84502318 19.921258,7.40654797 20.6141373,7.40654797 C21.3070167,7.40654797 21.8685415,6.84502318 21.8685415,6.15214382 L21.8685415,1.3019086 C21.8685415,0.609108945 21.3070167,0.0475044401 20.6141373,0.0475044401 Z" id="Shape"></path>
            <path d="M32.7139008,9.3846775 L23.3482729,8.00489669 C22.6633641,7.9024752 22.0253221,8.37783842 21.9245744,9.06314577 C21.8238267,9.74845311 22.2971176,10.3860966 22.982425,10.4868443 L32.3480528,11.8666251 C32.4099043,11.8757912 32.4714369,11.8804141 32.5324115,11.8804141 C33.1441507,11.8804141 33.6797713,11.4321507 33.7717514,10.8082963 C33.8725787,10.1231484 33.3992081,9.48550487 32.7139008,9.3846775 Z" id="Shape"></path>
            <path d="M18.2437773,7.29368508 L8.4596162,5.87205891 C7.77558415,5.77003595 7.13746242,6.24755122 7.03799004,6.93325709 C6.93851765,7.61896296 7.41348235,8.25541087 8.09918822,8.35488326 L17.8833494,9.77650942 C17.9444037,9.78567555 18.0050596,9.78989994 18.0652372,9.78989994 C18.678172,9.78989994 19.2142707,9.33996275 19.3049755,8.71531124 C19.4045276,8.02960537 18.9295629,7.39315746 18.2437773,7.29368508 Z" id="Shape"></path>
        </g>
    </g>
</svg>