<svg width="46" height="36" xmlns="http://www.w3.org/2000/svg"><g fill="#D99860"><path d="M18.51 25.74L10.609 7.469a1.41 1.41 0 00-1.294-.853c-.562 0-1.07.335-1.294.852L.117 25.692a1.42 1.42 0 00.297 1.566l1.176 1.18a10.805 10.805 0 007.7 3.213c2.894 0 5.62-1.133 7.68-3.192l1.203-1.115a1.42 1.42 0 00.338-1.604zm-3.474.657a8.005 8.005 0 01-5.745 2.422 8.006 8.006 0 01-5.705-2.383l-.496-.499 6.223-14.352 6.21 14.36-.487.452z"/><path d="M1.412 24.842H17.17v2.833H1.412zm44.386 5.154L37.895 11.44a1.411 1.411 0 00-1.298-.86h-.001a1.415 1.415 0 00-1.298.863L27.443 30a1.42 1.42 0 00.3 1.555l1.177 1.18a10.804 10.804 0 007.7 3.213 10.8 10.8 0 007.701-3.212l1.176-1.18a1.42 1.42 0 00.3-1.56zm-3.472.736a8.007 8.007 0 01-5.706 2.382 8.008 8.008 0 01-5.705-2.382l-.503-.505 6.189-14.616 6.225 14.618-.5.503z"/><path d="M28.742 29.138H44.5v2.833H28.742zM23.19 5.625c-2.36 0-4.28 1.928-4.28 4.296 0 2.369 1.92 4.297 4.28 4.297 2.361 0 4.282-1.928 4.282-4.297 0-2.368-1.92-4.296-4.281-4.296zm0 5.76a1.463 1.463 0 010-2.927 1.463 1.463 0 010 2.927z"/><path d="M23.19.054c-.778 0-1.41.634-1.41 1.416v5.477c0 .782.631 1.416 1.41 1.416.78 0 1.412-.634 1.412-1.416V1.47c0-.782-.632-1.416-1.411-1.416zm13.613 10.543L26.267 9.039a1.41 1.41 0 00-1.602 1.195 1.415 1.415 0 001.19 1.607L36.392 13.4a1.413 1.413 0 001.602-1.195 1.415 1.415 0 00-1.19-1.607zM20.524 8.236L9.517 6.63a1.41 1.41 0 00-1.6 1.199 1.416 1.416 0 001.195 1.605l11.007 1.605a1.413 1.413 0 001.6-1.198 1.415 1.415 0 00-1.195-1.605z"/></g></svg>