<svg width="24" height="24" viewBox="0 0 24 24" fill="none" xmlns="http://www.w3.org/2000/svg">
<path d="M0 12C0 5.37258 5.37258 0 12 0V0C18.6274 0 24 5.37258 24 12V12C24 18.6274 18.6274 24 12 24V24C5.37258 24 0 18.6274 0 12V12Z" fill="#D99860"/>
<path d="M8.86931 11.1351C8.7911 11.0566 8.69815 10.9942 8.59579 10.9517C8.49343 10.9092 8.38367 10.8873 8.27282 10.8873C8.16197 10.8873 8.05222 10.9092 7.94985 10.9517C7.84749 10.9942 7.75454 11.0566 7.67634 11.1351C7.59778 11.2133 7.53544 11.3063 7.4929 11.4087C7.45036 11.511 7.42847 11.6208 7.42847 11.7316C7.42847 11.8425 7.45036 11.9522 7.4929 12.0546C7.53544 12.157 7.59778 12.2499 7.67634 12.3281L10.7092 15.3609L10.7584 15.4101C10.8323 15.4842 10.9202 15.543 11.0169 15.5832C11.1137 15.6233 11.2173 15.6439 11.322 15.6439C11.4268 15.6439 11.5304 15.6233 11.6272 15.5832C11.7239 15.543 11.8118 15.4842 11.8857 15.4101L17.124 10.1719C17.1981 10.0979 17.2569 10.01 17.297 9.91332C17.3372 9.81659 17.3578 9.71291 17.3578 9.6082C17.3578 9.50349 17.3372 9.39981 17.297 9.30309C17.2569 9.20636 17.1981 9.1185 17.124 9.04453L17.0584 8.97891C16.9844 8.9048 16.8966 8.846 16.7998 8.80588C16.7031 8.76577 16.5994 8.74512 16.4947 8.74512C16.39 8.74512 16.2863 8.76577 16.1896 8.80588C16.0929 8.846 16.005 8.9048 15.931 8.97891L11.3209 13.5867L8.86931 11.1351Z" fill="white"/>
</svg>
