<?xml version="1.0" encoding="UTF-8"?>
<svg width="46px" height="36px" viewBox="0 0 46 36" version="1.1" xmlns="http://www.w3.org/2000/svg" xmlns:xlink="http://www.w3.org/1999/xlink">
    <!-- Generator: Sketch 47.1 (45422) - http://www.bohemiancoding.com/sketch -->
    <title>balance copy</title>
    <desc>Created with Sketch.</desc>
    <defs></defs>
    <g id="Page-1" stroke="none" stroke-width="1" fill="none" fill-rule="evenodd">
        <g id="balance-copy" fill-rule="nonzero" fill="#D99860">
            <path d="M18.5105614,25.74 L10.6079766,7.46856 C10.3845224,6.95106 9.8760117,6.61635 9.31441715,6.61635 L9.31396881,6.61635 C8.7522846,6.61635 8.24431189,6.95061 8.01996101,7.46757 L0.117196881,25.69176 C-0.114237817,26.22528 0.00340740741,26.84709 0.413551657,27.2583 L1.58955556,28.43865 C3.65363743,30.51036 6.38853021,31.65147 9.29083431,31.65147 C12.1837232,31.65147 14.9096491,30.51792 16.9699649,28.4589 L18.1732281,27.34416 C18.614039,26.93583 18.7495283,26.29233 18.5105614,25.74 Z M15.0361715,26.39673 C15.0225419,26.40951 15.0089123,26.42274 14.995731,26.43588 C13.4655361,27.97218 11.439115,28.81872 9.29083431,28.81872 C7.14255361,28.81872 5.1165809,27.97218 3.58593762,26.43588 L3.0897115,25.93728 L9.31298246,11.58543 L15.5236101,25.94529 L15.0361715,26.39673 Z" id="Shape"></path>
            <rect id="Rectangle-path" x="1.41174269" y="24.84153" width="15.7581832" height="2.83275"></rect>
            <path d="M45.7975283,29.99574 L37.8949435,11.44143 C37.6724756,10.9197 37.1620819,10.58166 36.5971696,10.58166 C36.5967212,10.58166 36.5962729,10.58166 36.5957349,10.58166 C36.0302846,10.58256 35.5194425,10.92204 35.2984094,11.44422 L27.4428109,29.99898 C27.217922,30.53016 27.3370019,31.14576 27.7438285,31.55418 L28.9198324,32.73453 C30.9839142,34.80624 33.718269,35.9469 36.6206628,35.9469 C39.5230565,35.9469 42.2578596,34.80624 44.3214932,32.73453 L45.4974971,31.55418 C45.9053099,31.1454 46.0238519,30.52827 45.7975283,29.99574 Z M42.3255595,30.73176 C40.7949162,32.26806 38.7684951,33.11415 36.6201248,33.11415 C34.4722924,33.11415 32.4458713,32.26806 30.9146901,30.73176 L30.4122768,30.22749 L36.6007563,15.61077 L42.8264483,30.22893 L42.3255595,30.73176 Z" id="Shape"></path>
            <rect id="Rectangle-path" x="28.7415712" y="29.13786" width="15.7581832" height="2.83275"></rect>
            <path d="M23.1909045,5.62482 C20.8304678,5.62482 18.9103041,7.55253 18.9103041,9.92124 C18.9103041,12.28995 20.8304678,14.21766 23.1909045,14.21766 C25.5513411,14.21766 27.4719532,12.28995 27.4719532,9.92124 C27.4719532,7.55253 25.5518791,5.62482 23.1909045,5.62482 Z M23.1909045,11.38482 C22.3870253,11.38482 21.7327135,10.72809 21.7327135,9.92124 C21.7327135,9.11439 22.3870253,8.45766 23.1909045,8.45766 C23.9953216,8.45766 24.6496335,9.11394 24.6496335,9.92124 C24.6496335,10.72809 23.9953216,11.38482 23.1909045,11.38482 Z" id="Shape"></path>
            <path d="M23.1909045,0.05364 C22.4115049,0.05364 21.7796998,0.68769 21.7796998,1.47006 L21.7796998,6.94674 C21.7796998,7.72911 22.4114152,8.36316 23.1909045,8.36316 C23.9703938,8.36316 24.6021092,7.72911 24.6021092,6.94674 L24.6021092,1.47006 C24.6021092,0.68778 23.9703938,0.05364 23.1909045,0.05364 Z" id="Shape"></path>
            <path d="M36.8031384,10.59678 L26.266807,9.03879 C25.4962846,8.92314 24.7784873,9.4599 24.6651462,10.23372 C24.5518051,11.00754 25.0842573,11.72754 25.8552281,11.8413 L36.3915595,13.39929 C36.4611423,13.40964 36.5303665,13.41486 36.598963,13.41486 C37.2871696,13.41486 37.8897427,12.9087 37.9932203,12.20427 C38.1066511,11.43063 37.5741092,10.71063 36.8031384,10.59678 Z" id="Shape"></path>
            <path d="M20.5242495,8.23572 L9.51706823,6.63048 C8.74753216,6.51528 8.02964522,7.05447 7.91773879,7.82874 C7.80583236,8.60301 8.34016764,9.32166 9.11158674,9.43398 L20.118768,11.03922 C20.1874542,11.04957 20.255692,11.05434 20.3233918,11.05434 C21.0129435,11.05434 21.6160546,10.54629 21.7180975,9.84096 C21.8300936,9.06669 21.2957583,8.34804 20.5242495,8.23572 Z" id="Shape"></path>
        </g>
    </g>
</svg>